<?xml version="1.0" standalone="no"?>
<svg xmlns:xlink="http://www.w3.org/1999/xlink" id="wave" style="transform:rotate(0deg); transition: 0.3s" viewBox="0 0 1440 490" version="1.1" xmlns="http://www.w3.org/2000/svg"><defs><linearGradient id="sw-gradient-0" x1="0" x2="0" y1="1" y2="0"><stop stop-color="rgba(99, 102, 241, 1)" offset="0%"/><stop stop-color="rgba(67, 56, 202, 1)" offset="100%"/></linearGradient></defs><path style="transform:translate(0, 0px); opacity:1" fill="url(#sw-gradient-0)" d="M0,392L30,367.5C60,343,120,294,180,236.8C240,180,300,114,360,89.8C420,65,480,82,540,130.7C600,180,660,261,720,277.7C780,294,840,245,900,245C960,245,1020,294,1080,318.5C1140,343,1200,343,1260,294C1320,245,1380,147,1440,130.7C1500,114,1560,180,1620,187.8C1680,196,1740,147,1800,147C1860,147,1920,196,1980,228.7C2040,261,2100,278,2160,310.3C2220,343,2280,392,2340,408.3C2400,425,2460,408,2520,408.3C2580,408,2640,425,2700,392C2760,359,2820,278,2880,253.2C2940,229,3000,261,3060,236.8C3120,212,3180,131,3240,147C3300,163,3360,278,3420,302.2C3480,327,3540,261,3600,245C3660,229,3720,261,3780,261.3C3840,261,3900,229,3960,204.2C4020,180,4080,163,4140,130.7C4200,98,4260,49,4290,24.5L4320,0L4320,490L4290,490C4260,490,4200,490,4140,490C4080,490,4020,490,3960,490C3900,490,3840,490,3780,490C3720,490,3660,490,3600,490C3540,490,3480,490,3420,490C3360,490,3300,490,3240,490C3180,490,3120,490,3060,490C3000,490,2940,490,2880,490C2820,490,2760,490,2700,490C2640,490,2580,490,2520,490C2460,490,2400,490,2340,490C2280,490,2220,490,2160,490C2100,490,2040,490,1980,490C1920,490,1860,490,1800,490C1740,490,1680,490,1620,490C1560,490,1500,490,1440,490C1380,490,1320,490,1260,490C1200,490,1140,490,1080,490C1020,490,960,490,900,490C840,490,780,490,720,490C660,490,600,490,540,490C480,490,420,490,360,490C300,490,240,490,180,490C120,490,60,490,30,490L0,490Z"/></svg>